<?xml version="1.0" encoding="utf-8"?>
<!-- Generator: Adobe Illustrator 23.0.5, SVG Export Plug-In . SVG Version: 6.00 Build 0)  -->
<svg version="1.1" id="Camada_1" xmlns="http://www.w3.org/2000/svg" xmlns:xlink="http://www.w3.org/1999/xlink" x="0px" y="0px"
	 viewBox="0 0 1300 1300" style="enable-background:new 0 0 1300 1300;" xml:space="preserve">
<style type="text/css">
	.st0{fill:#00557F;}
	.st1{fill:#F37121;}
</style>
<g>
	<g>
		<path class="st0" d="M296.81,544.78h43.09v195.88h-43.09V544.78z"/>
		<path class="st0" d="M371.32,574.43h33.72l77.89,102.35V574.43h36.1v166.23h-31.11l-80.5-105.68v105.68h-36.09V574.43z"/>
		<path class="st0" d="M558.91,574.43h33.72l77.89,102.35V574.43h36.1v166.23H675.5L595,634.98v105.68h-36.09V574.43z"/>
		<path class="st1" d="M797.31,585.83h-57.94v-11.4h128.24v11.4h-57.94v154.83h-12.35V585.83z"/>
		<path class="st1" d="M905.11,574.43h118.26v11.4H917.46v65.3h95.23v11.4h-95.23v66.73h107.1v11.4H905.11V574.43z"/>
		<path class="st1" d="M1064.2,574.43h12.35v154.83h97.6v11.4H1064.2V574.43z"/>
	</g>
	<g>
		<path class="st1" d="M329.86,813.32c-4.25,4.25-9.89,6.37-15.47,6.37c-14.31,0-21.77-10.01-21.83-21.47
			c-0.12-11.34,7.28-21.96,21.83-21.96c5.58,0,11.22,2.12,15.47,6.37l-2.25,1.94c-3.64-3.64-8.43-5.4-13.22-5.4
			c-12.37,0-18.74,8.73-18.68,18.92c0.12,9.95,6.43,18.56,18.68,18.56c4.79,0,9.64-1.82,13.28-5.4L329.86,813.32z"/>
		<path class="st1" d="M414.86,798.03c-0.06,11.16-7.16,21.89-21.41,21.89c-14.25,0-21.41-10.8-21.41-22.02
			c0-11.4,7.1-21.84,21.41-21.84C407.76,776.08,414.92,786.57,414.86,798.03z M375.26,797.97c0.06,9.58,6.13,18.92,18.19,18.92
			c12.13,0,18.26-9.34,18.26-18.92c0-9.82-6.07-18.86-18.26-18.86C381.26,779.11,375.19,787.97,375.26,797.97z"/>
		<path class="st1" d="M496.04,781.48l-16.25,24.87h-1.09l-16.37-24.87v37.72h-3.28v-42.45c1.57,0,2.3,0,3.88,0l16.25,24.74
			l16.07-24.74h4v42.45h-3.21V781.48z"/>
		<path class="st1" d="M582.01,781.48l-16.25,24.87h-1.09l-16.37-24.87v37.72h-3.28v-42.45c1.58,0,2.3,0,3.88,0l16.25,24.74
			l16.07-24.74h4v42.45h-3.21V781.48z"/>
		<path class="st1" d="M663.44,776.75v26.38c0,22.2-32.51,22.26-32.51,0v-26.38h3.21v26.38c0,18.26,26.08,18.2,26.08,0v-26.38
			H663.44z"/>
		<path class="st1" d="M743.78,813.32c-4.25,4.25-9.89,6.37-15.47,6.37c-14.31,0-21.77-10.01-21.83-21.47
			c-0.12-11.34,7.28-21.96,21.83-21.96c5.58,0,11.22,2.12,15.47,6.37l-2.25,1.94c-3.64-3.64-8.43-5.4-13.22-5.4
			c-12.37,0-18.74,8.73-18.68,18.92c0.12,9.95,6.43,18.56,18.68,18.56c4.79,0,9.64-1.82,13.28-5.4L743.78,813.32z"/>
		<path class="st1" d="M819.68,819.2l-4.67-10.43h-25.35l-4.61,10.43h-3.52l19.04-42.45h3.58l19.04,42.45H819.68z M813.74,805.74
			l-11.4-25.84l-11.4,25.84H813.74z"/>
		<path class="st1" d="M870.12,779.72h-15.35v-2.91h33.96v2.91H873.4v39.48h-3.28V779.72z"/>
		<path class="st1" d="M931.35,819.2v-42.45h3.21v42.45H931.35z"/>
		<path class="st1" d="M1022.55,798.03c-0.06,11.16-7.16,21.89-21.41,21.89c-14.25,0-21.41-10.8-21.41-22.02
			c0-11.4,7.1-21.84,21.41-21.84C1015.46,776.08,1022.61,786.57,1022.55,798.03z M982.95,797.97c0.06,9.58,6.13,18.92,18.19,18.92
			c12.13,0,18.26-9.34,18.26-18.92c0-9.82-6.07-18.86-18.26-18.86C988.95,779.11,982.89,787.97,982.95,797.97z"/>
		<path class="st1" d="M1068.13,776.75l28.57,35.12v-35.12h3.21v42.45h-1.28l-28.62-35.06v35.06h-3.28v-42.45H1068.13z"/>
		<path class="st1" d="M1173.94,784.93c-3.09-4.97-8.07-5.7-12.86-5.76c-4.97,0-12.86,1.82-12.86,8.61c0,5.4,5.82,6.67,12.98,8.01
			c8.19,1.58,16.68,3.03,16.68,12.19c-0.06,9.58-9.71,11.89-16.8,11.89c-6.61,0-14.13-2.73-17.4-9.22l2.91-1.45
			c2.61,5.16,9.28,7.7,14.5,7.7c5.22,0,13.53-1.46,13.53-8.98c0.06-6.37-6.97-7.76-13.95-9.1c-7.76-1.52-15.71-3.09-15.71-10.92
			c-0.18-8.98,9.16-11.77,16.13-11.77c6.07,0,11.34,0.97,15.53,7.22L1173.94,784.93z"/>
	</g>
	<path class="st0" d="M335.95,391.93c-30.49,25.81-25.89,64.96-37.12,98.6c0.12-34.87,0.25-69.74,0.37-104.61
		c-30.53,33.59-19.97,75.31-26.05,114.23c-4.82-34.6-9.62-69.19-14.44-103.78c-30.75,40.55-8.69,82.99-8.21,125.31
		c-8.3-25.7-16.59-51.4-25.29-78.35c-9.9,17.72-10.22,34.99-4.85,52.32c5.2,16.78,15.29,42.48,21.16,59.05
		c-1.14-0.63-4.83-6.89-5.86-8.26c-9.07-15.26-20.82-35.45-29.89-50.71c-1.1,0.27-0.63,3.8-0.61,5.71
		c1.54,12.19,1.52,24.84,5.03,36.43c3.21,10.61,9.58,20.27,14.85,30.26c14.26,16.81,34.11,35.43,61.3,52.34l0.01-8.51l0.02-16.38
		l-0.13-61.18h30.86c7.21-46.8,15.36-98.45,22.62-145.62C338.44,389.79,337.42,390.42,335.95,391.93z"/>
	<g>
		<g>
			<path class="st1" d="M202.82,625.44c-18.41,5.04-34.33,9.4-51.55,14.11C165.36,656.59,178.69,651.47,202.82,625.44z"/>
			<path class="st1" d="M183.85,563.57c0.93-1.03-6.59-10.39-7.61-12.48c-26.51-34.61-53.02-69.22-80.94-105.66
				c-4.22,17.09-5.55,31.73,5.63,42.54C124.46,510.71,159.61,541.58,183.85,563.57z"/>
			<path class="st1" d="M114.32,611.46c13.75,20.56,38.96,19.4,69.81-1.45C160.65,610.5,138.21,610.96,114.32,611.46z"/>
			<path class="st1" d="M181.19,593.44c-0.09-0.95-5.41-2.95-8.86-4.13c-29.07-6.27-58.15-12.55-88.89-19.19
				c5.77,14.53,14.13,23.14,26.91,23.7C130.87,594.71,160.64,593.67,181.19,593.44z"/>
			<path class="st1" d="M96.91,547.33c21.95,8.55,59.72,20.27,82.13,27.64c-0.22-1.11-10.39-6.53-13.63-8.56
				c-28.27-17.87-56.54-35.74-86.17-54.48C80.28,530.5,85.2,542.77,96.91,547.33z"/>
			<path class="st1" d="M237.99,645.52c-6.65,7.2-12.48,13.52-19.41,21.03C234.39,668.79,238.12,664.52,237.99,645.52z"/>
			<path class="st1" d="M225.03,568.13c-0.01-0.04-0.04-0.07-0.05-0.1c0.35,0.66,0.73,1.32,1.08,1.99
				c-41.74-48.65-61.13-107.76-78.29-169.87c-10.52,21.51-12.21,48.41-2.76,69.91c7.85,17.85,17.08,35.38,27.92,51.57
				c0,0,36.35,59.89,113.4,105l0-6.16C259.14,603.56,239.28,584.94,225.03,568.13z"/>
			<path class="st1" d="M214.11,547.68c-0.27-0.56-0.57-1.11-0.82-1.67C213.54,546.58,213.84,547.13,214.11,547.68z"/>
			<path class="st1" d="M183.5,657.65c16.67,8.63,21.32,6.29,35.31-18.53C207.32,645.15,195.84,651.18,183.5,657.65z"/>
			<path class="st1" d="M243.89,669.94c14.46-2.02,14.19-10.89,13.28-19.96C253.3,655.81,249.42,661.63,243.89,669.94z"/>
		</g>
	</g>
</g>
</svg>
